PathFileType	4	(X/Y/Z)	C:/Users/opensim2020/Desktop/walking_exp_matlab/subject06_walking17_straight_04.trc																																																																																																																																					
DataRate	CameraRate	NumFrames	NumMarkers	Units	OrigDataRate	OrigDataStartFrame	OrigNumFrames																																																																																																																																	
100	100	6	45	mm	100	4524	318																																																																																																																																	
Frame#	Time	LFHD			RFHD			LBHD			RBHD			C7			T10			CLAV			STRN			RBAK			LSHO			LUPA			LELB			LFRM			LWRA			LWRB			LFIN			RSHO			RUPA			RELB			RFRM			RWRA			RWRB			RFIN			LASI			RASI			LPSI			RPSI			LTHI			LKNE			LTIB			LANK			LHEE			LTOE			RTHI			RKNE			RTIB			RANK			RHEE			RTOE			*39			*40			*41			*42			*43			*44		
		X1	Y1	Z1	X2	Y2	Z2	X3	Y3	Z3	X4	Y4	Z4	X5	Y5	Z5	X6	Y6	Z6	X7	Y7	Z7	X8	Y8	Z8	X9	Y9	Z9	X10	Y10	Z10	X11	Y11	Z11	X12	Y12	Z12	X13	Y13	Z13	X14	Y14	Z14	X15	Y15	Z15	X16	Y16	Z16	X17	Y17	Z17	X18	Y18	Z18	X19	Y19	Z19	X20	Y20	Z20	X21	Y21	Z21	X22	Y22	Z22	X23	Y23	Z23	X24	Y24	Z24	X25	Y25	Z25	X26	Y26	Z26	X27	Y27	Z27	X28	Y28	Z28	X29	Y29	Z29	X30	Y30	Z30	X31	Y31	Z31	X32	Y32	Z32	X33	Y33	Z33	X34	Y34	Z34	X35	Y35	Z35	X36	Y36	Z36	X37	Y37	Z37	X38	Y38	Z38	X39	Y39	Z39	X40	Y40	Z40	X41	Y41	Z41	X42	Y42	Z42	X43	Y43	Z43	X44	Y44	Z44	X45	Y45	Z45
																																																																																																																																								
239	2.38	188.96823	1668.93396	-1539.16943	179.69444	1650.68164	-1408.38135	56.21231	1614.71179	-1551.52637	48.1799	1602.11108	-1423.05042	49.41443	1455.04614	-1498.40955	13.15477	1125.71326	-1487.7887	158.3541	1376.9458	-1495.54272	197.13979	1200.95776	-1503.71765	-24.45752	1284.07324	-1419.01892	109.66127	1410.49817	-1657.09705	149.93987	1217.46667	-1740.08826	185.16196	1111.14722	-1760.51501	287.56247	999.64972	-1769.80029	391.38828	939.2796	-1708.34009	354.2594	900.88446	-1754.33484	435.78519	861.03052	-1743.73523	112.58051	1408.57495	-1335.13513	70.15298	1210.79639	-1247.96436	77.87033	1088.84253	-1237.23022	97.08283	969.99506	-1220.67102	163.62105	834.5968	-1253.55139	108.80566	832.93152	-1213.92078	148.84328	758.32684	-1213.03333	188.03134	960.32886	-1595.25122	192.81493	973.85712	-1373.19519	30.8589	991.56555	-1562.4292	40.12489	995.15381	-1394.42822	97.10303	647.77582	-1631.11804	77.37817	484.91287	-1603.02661	-3.91549	240.09195	-1580.47363	-38.80148	75.08979	-1523.57788	-79.44151	66.82668	-1477.07178	103.66123	39.52459	-1522.83936	198.57347	646.07971	-1302.14355	241.78816	529.36902	-1333.30603	264.8847	268.56107	-1330.87549	306.8833	85.77288	-1370.10571	277.34567	54.81495	-1418.53162	465.80704	74.2364	-1373.54712	84.54675	1703.7373	-1484.82813	NaN	NaN	NaN	NaN	NaN	NaN	NaN	NaN	NaN	NaN	NaN	NaN	NaN	NaN	NaN
240	2.39	195.03752	1668.4292	-1538.47949	185.69664	1649.99268	-1407.69031	61.85392	1614.30994	-1551.08582	54.1097	1601.60181	-1422.55518	55.11161	1454.58118	-1497.94312	18.84751	1125.21716	-1487.10852	164.1163	1376.3446	-1495.14343	202.71959	1200.32129	-1503.4458	-18.68766	1283.52356	-1418.57825	115.36092	1410.10083	-1656.5968	155.45308	1216.90283	-1739.32336	190.54602	1110.46448	-1759.55212	293.86417	999.82416	-1767.91565	398.35049	941.35675	-1705.94482	361.5928	901.9812	-1751.3905	443.51437	863.01831	-1740.36084	118.40855	1407.9519	-1334.66504	75.68813	1210.17285	-1247.93372	83.21398	1088.15759	-1237.04285	102.31501	969.27679	-1220.5437	168.5939	833.72681	-1253.32422	113.69523	832.11847	-1213.8418	153.57939	757.55066	-1212.84619	193.3228	959.80139	-1595.19934	198.82097	973.18176	-1373.20471	36.30209	991.19757	-1561.85278	46.19224	994.71722	-1393.7926	101.30885	647.50775	-1630.93518	80.88332	484.69104	-1602.93518	-1.92336	240.5762	-1579.81799	-38.61953	75.66219	-1523.35193	-79.19168	67.70473	-1476.96899	103.64017	39.31094	-1523.06934	204.24561	645.39551	-1302.4176	247.43887	529.02344	-1334.00964	274.52591	268.49808	-1331.51501	320.41656	86.58138	-1370.90051	291.74442	55.14447	-1419.56042	479.73373	78.17998	-1373.61121	90.62688	1703.22766	-1484.15112	NaN	NaN	NaN	NaN	NaN	NaN	NaN	NaN	NaN	NaN	NaN	NaN	NaN	NaN	NaN
241	2.4	201.0955	1667.83228	-1537.71606	191.71782	1649.30115	-1406.96167	67.84007	1613.90649	-1550.37012	60.10243	1601.0481	-1421.88757	60.99653	1454.10657	-1497.44055	24.58931	1124.6897	-1486.4834	169.94589	1375.79114	-1494.70801	208.42001	1199.80664	-1503.15527	-12.88579	1282.94519	-1418.12683	121.01943	1409.59302	-1656.07678	161.00937	1216.3197	-1738.48291	195.8376	1109.69482	-1758.41431	299.9472	999.81403	-1766.00964	405.12491	943.1778	-1703.5415	368.63034	902.7713	-1748.31299	450.90656	864.69177	-1736.95264	124.31756	1407.33093	-1334.11548	81.11349	1209.51086	-1247.40442	88.65589	1087.48657	-1236.81323	107.50242	968.55615	-1220.35681	173.84331	832.9975	-1252.93359	118.611	831.39343	-1213.67932	158.39545	756.6908	-1212.60242	198.67648	959.30481	-1595.16211	204.90331	972.49847	-1373.2002	41.76012	990.79749	-1561.15088	52.27481	994.22125	-1393.16797	105.53013	647.24152	-1630.76929	84.33261	484.47479	-1602.78845	-0.02787	240.93352	-1579.36755	-38.01123	76.23942	-1523.52734	-78.97517	68.64706	-1476.99548	103.94421	39.37465	-1522.93433	210.16714	644.7876	-1302.90393	253.16263	528.79492	-1334.92883	283.71429	268.43253	-1332.06787	332.9306	87.38126	-1371.58118	305.33075	55.41859	-1420.63098	492.60864	81.98754	-1373.30396	96.70789	1702.74866	-1483.41052	NaN	NaN	NaN	NaN	NaN	NaN	NaN	NaN	NaN	NaN	NaN	NaN	NaN	NaN	NaN
242	2.41	207.147	1667.29614	-1536.96204	197.63609	1648.60303	-1406.17188	73.83257	1613.48083	-1549.74561	66.05457	1600.49597	-1421.1488	66.88532	1453.52161	-1496.75745	30.39273	1124.19116	-1485.70081	175.91484	1375.19531	-1494.25159	214.17516	1199.20386	-1502.8468	-6.96605	1282.32642	-1417.42798	126.69366	1409.07886	-1655.521	166.6017	1215.64844	-1737.52356	201.02048	1108.87915	-1757.1217	305.82269	999.63928	-1763.95715	411.55756	944.66614	-1700.99353	375.35562	903.43121	-1745.31299	457.98138	866.0639	-1733.44763	130.3	1406.66846	-1333.54785	86.94677	1208.85754	-1247.16235	94.10947	1086.77356	-1236.45081	112.72721	967.80908	-1220.0376	178.67294	832.09271	-1252.69727	123.69431	830.71991	-1213.43823	163.22021	755.91101	-1212.31909	204.05017	958.7843	-1595.07959	210.99333	971.84143	-1373.1062	47.28897	990.39026	-1560.47339	58.38159	993.6933	-1392.401	109.75089	646.9563	-1630.59167	87.78582	484.23096	-1602.64441	1.84035	241.29993	-1578.94849	-37.97213	76.86049	-1523.30542	-78.47879	69.31284	-1477.0033	103.95123	39.38218	-1522.94177	216.10379	644.22827	-1303.61902	258.75131	528.48907	-1335.87195	292.50253	268.32578	-1332.68835	344.81155	88.15096	-1372.30347	317.96182	55.69165	-1421.61365	504.20917	85.43197	-1372.70679	102.74624	1702.22864	-1482.58374	NaN	NaN	NaN	NaN	NaN	NaN	NaN	NaN	NaN	NaN	NaN	NaN	NaN	NaN	NaN
243	2.42	213.16005	1666.74658	-1536.05005	203.72806	1647.95435	-1405.41235	79.80093	1613.01599	-1548.94592	72.07217	1599.90759	-1420.45239	72.88511	1452.96851	-1496.07031	36.26577	1123.63086	-1484.96082	181.62379	1374.58618	-1493.61487	219.94325	1198.58386	-1502.40088	-1.08741	1281.77209	-1416.69568	132.42244	1408.51794	-1654.9137	172.13684	1214.91724	-1736.51917	206.21729	1107.95923	-1755.78613	311.59534	999.37128	-1761.83215	417.81885	945.81427	-1698.38989	381.94077	903.9209	-1742.32263	464.7446	867.08398	-1729.90051	136.38477	1406.03101	-1332.9231	92.42461	1208.03333	-1246.52209	99.67893	1086.10083	-1236.05188	117.99995	967.07922	-1219.7041	183.76756	831.1991	-1252.41187	128.28961	829.87372	-1213.15613	168.04158	754.96631	-1212.07043	209.50929	958.27087	-1594.95227	217.19008	971.16553	-1372.96423	52.89466	989.94226	-1559.76013	64.55251	993.20026	-1391.73816	114.0218	646.63617	-1630.35925	91.19391	484.03964	-1602.37671	3.4319	241.77785	-1578.26392	-37.26401	77.49191	-1523.27991	-78.21874	70.25122	-1476.93835	104.24312	39.41391	-1522.73474	222.3844	643.6781	-1304.44312	264.57407	528.07629	-1336.81848	300.81995	268.13211	-1333.11682	355.64682	88.65498	-1372.8927	329.60849	55.83038	-1422.44287	515.04462	88.59226	-1372.01807	108.81878	1701.70081	-1481.75854	NaN	NaN	NaN	NaN	NaN	NaN	NaN	NaN	NaN	NaN	NaN	NaN	NaN	NaN	NaN
244	2.43	219.56721	1666.2616	-1535.3175	209.7619	1647.34644	-1404.58325	85.8604	1612.52087	-1548.11438	78.09433	1599.33264	-1419.6189	78.8568	1452.46741	-1495.29431	42.17005	1123.12732	-1484.17493	187.57425	1373.96619	-1492.99255	225.69035	1198.01221	-1501.92761	4.88773	1281.22034	-1415.87036	138.39743	1407.97888	-1654.2876	177.68478	1214.10193	-1735.44482	211.43808	1106.9325	-1754.39392	317.32568	998.87744	-1759.71338	423.85193	946.67981	-1695.71997	388.28415	904.12085	-1739.26965	471.25571	867.74725	-1726.32898	142.51564	1405.38513	-1332.24048	98.51105	1207.36182	-1246.10132	105.43446	1085.37146	-1235.53564	123.50951	966.28766	-1219.33984	188.84157	830.23761	-1252.08875	133.4818	829.07947	-1212.78589	172.7943	754.06812	-1211.77026	215.03566	957.77533	-1594.84167	223.54454	970.54016	-1372.72815	58.55558	989.52332	-1559.16028	70.73848	992.68762	-1391.10486	118.35408	646.4068	-1630.11682	94.65129	483.89261	-1602.14978	5.45422	242.23145	-1578.1084	-36.96046	78.21362	-1523.12683	-78.12817	71.46941	-1476.93726	104.36076	39.40724	-1522.70032	228.83429	643.24103	-1305.32849	270.30087	527.6593	-1337.80823	308.59671	267.87234	-1333.43848	365.50638	88.84406	-1373.78589	340.18103	55.84308	-1423.09192	524.8454	91.10252	-1371.47864	114.88233	1701.13684	-1480.849	NaN	NaN	NaN	NaN	NaN	NaN	NaN	NaN	NaN	NaN	NaN	NaN	NaN	NaN	NaN
